<svg aria-roledescription="er" role="graphics-document document" viewBox="-129.33126068115234 0 676.6593627929688 731.8619995117188" style="max-width: 676.6593627929688px;" xmlns="http://www.w3.org/2000/svg" width="100%" id="export-svg"><style xmlns="http://www.w3.org/1999/xhtml">@import url("https://cdnjs.cloudflare.com/ajax/libs/font-awesome/6.2.0/css/all.min.css"); p {margin: 0;}</style><style>#export-svg{font-family:arial,sans-serif;font-size:14px;fill:#000000;}@keyframes edge-animation-frame{from{stroke-dashoffset:0;}}@keyframes dash{to{stroke-dashoffset:0;}}#export-svg .edge-animation-slow{stroke-dasharray:9,5!important;stroke-dashoffset:900;animation:dash 50s linear infinite;stroke-linecap:round;}#export-svg .edge-animation-fast{stroke-dasharray:9,5!important;stroke-dashoffset:900;animation:dash 20s linear infinite;stroke-linecap:round;}#export-svg .error-icon{fill:#552222;}#export-svg .error-text{fill:#552222;stroke:#552222;}#export-svg .edge-thickness-normal{stroke-width:1px;}#export-svg .edge-thickness-thick{stroke-width:3.5px;}#export-svg .edge-pattern-solid{stroke-dasharray:0;}#export-svg .edge-thickness-invisible{stroke-width:0;fill:none;}#export-svg .edge-pattern-dashed{stroke-dasharray:3;}#export-svg .edge-pattern-dotted{stroke-dasharray:2;}#export-svg .marker{fill:#000000;stroke:#000000;}#export-svg .marker.cross{stroke:#000000;}#export-svg svg{font-family:arial,sans-serif;font-size:14px;}#export-svg p{margin:0;}#export-svg .entityBox{fill:#cde498;stroke:#13540c;}#export-svg .attributeBoxOdd{fill:#ffffff;stroke:#13540c;}#export-svg .attributeBoxEven{fill:#f2f2f2;stroke:#13540c;}#export-svg .relationshipLabelBox{fill:hsl(78.1578947368, 58.4615384615%, 84.5098039216%);opacity:0.7;background-color:hsl(78.1578947368, 58.4615384615%, 84.5098039216%);}#export-svg .relationshipLabelBox rect{opacity:0.5;}#export-svg .relationshipLine{stroke:#000000;}#export-svg .entityTitleText{text-anchor:middle;font-size:18px;fill:#000000;}#export-svg #MD_PARENT_START{fill:#f5f5f5!important;stroke:#000000!important;stroke-width:1;}#export-svg #MD_PARENT_END{fill:#f5f5f5!important;stroke:#000000!important;stroke-width:1;}#export-svg .node .neo-node{stroke:#13540c;}#export-svg [data-look="neo"].node rect,#export-svg [data-look="neo"].cluster rect,#export-svg [data-look="neo"].node polygon{stroke:url(#export-svg-gradient);filter:drop-shadow( 1px 2px 2px rgba(185,185,185,0.5));}#export-svg [data-look="neo"].node path{stroke:url(#export-svg-gradient);}#export-svg [data-look="neo"].node .outer-path{filter:drop-shadow( 1px 2px 2px rgba(185,185,185,0.5));}#export-svg [data-look="neo"].node .neo-line path{stroke:hsl(78.1578947368, 18.4615384615%, 64.5098039216%);filter:none;}#export-svg [data-look="neo"].node circle{stroke:url(#export-svg-gradient);filter:drop-shadow( 1px 2px 2px rgba(185,185,185,0.5));}#export-svg [data-look="neo"].node circle .state-start{fill:#000000;}#export-svg [data-look="neo"].statediagram-cluster rect{fill:#cde498;stroke:url(#export-svg-gradient);stroke-width:1px;}#export-svg [data-look="neo"].icon-shape .icon{fill:url(#export-svg-gradient);filter:drop-shadow( 1px 2px 2px rgba(185,185,185,0.5));}#export-svg [data-look="neo"].icon-shape .icon-neo path{stroke:url(#export-svg-gradient);filter:drop-shadow( 1px 2px 2px rgba(185,185,185,0.5));}#export-svg :root{--mermaid-font-family:"trebuchet ms",verdana,arial,sans-serif;}</style><g/><defs><marker orient="auto" markerHeight="240" markerWidth="190" refY="7" refX="0" id="MD_PARENT_START"><path d="M 18,7 L9,13 L1,7 L9,1 Z"/></marker></defs><defs><marker orient="auto" markerHeight="28" markerWidth="20" refY="7" refX="19" id="MD_PARENT_END"><path d="M 18,7 L9,13 L1,7 L9,1 Z"/></marker></defs><defs><marker orient="auto" markerHeight="18" markerWidth="18" refY="9" refX="0" id="ONLY_ONE_START"><path d="M9,0 L9,18 M15,0 L15,18" fill="none" stroke="gray"/></marker></defs><defs><marker orient="auto" markerHeight="18" markerWidth="18" refY="9" refX="18" id="ONLY_ONE_END"><path d="M3,0 L3,18 M9,0 L9,18" fill="none" stroke="gray"/></marker></defs><defs><marker orient="auto" markerHeight="18" markerWidth="30" refY="9" refX="0" id="ZERO_OR_ONE_START"><circle r="6" cy="9" cx="21" fill="white" stroke="gray"/><path d="M9,0 L9,18" fill="none" stroke="gray"/></marker></defs><defs><marker orient="auto" markerHeight="18" markerWidth="30" refY="9" refX="30" id="ZERO_OR_ONE_END"><circle r="6" cy="9" cx="9" fill="white" stroke="gray"/><path d="M21,0 L21,18" fill="none" stroke="gray"/></marker></defs><defs><marker orient="auto" markerHeight="36" markerWidth="45" refY="18" refX="18" id="ONE_OR_MORE_START"><path d="M0,18 Q 18,0 36,18 Q 18,36 0,18 M42,9 L42,27" fill="none" stroke="gray"/></marker></defs><defs><marker orient="auto" markerHeight="36" markerWidth="45" refY="18" refX="27" id="ONE_OR_MORE_END"><path d="M3,9 L3,27 M9,18 Q27,0 45,18 Q27,36 9,18" fill="none" stroke="gray"/></marker></defs><defs><marker orient="auto" markerHeight="36" markerWidth="57" refY="18" refX="18" id="ZERO_OR_MORE_START"><circle r="6" cy="18" cx="48" fill="white" stroke="gray"/><path d="M0,18 Q18,0 36,18 Q18,36 0,18" fill="none" stroke="gray"/></marker></defs><defs><marker orient="auto" markerHeight="36" markerWidth="57" refY="18" refX="39" id="ZERO_OR_MORE_END"><circle r="6" cy="18" cx="9" fill="white" stroke="gray"/><path d="M21,18 Q39,0 57,18 Q39,36 21,18" fill="none" stroke="gray"/></marker></defs><path marker-start="url(#ONLY_ONE_START)" marker-end="url(#ZERO_OR_MORE_END)" style="stroke: gray; fill: none;" d="M238.398,148.915L277.609,167.77C316.82,186.626,395.242,224.337,434.453,262.055C473.664,299.773,473.664,337.497,473.664,356.359L473.664,375.222" class="er relationshipLine"/><path marker-start="url(#ONLY_ONE_START)" marker-end="url(#ZERO_OR_MORE_END)" style="stroke: gray; fill: none;" d="M104.241,212.048L98.534,220.381C92.827,228.715,81.414,245.381,75.707,272.567C70,299.753,70,337.457,70,356.31L70,375.162" class="er relationshipLine"/><path marker-start="url(#ONLY_ONE_START)" marker-end="url(#ZERO_OR_MORE_END)" style="stroke: gray; fill: none;" d="M235.759,212.048L241.466,220.381C247.173,228.715,258.586,245.381,264.293,262.048C270,278.715,270,295.381,270,303.715L270,312.048" class="er relationshipLine"/><path marker-start="url(#ONLY_ONE_START)" marker-end="url(#ZERO_OR_ONE_END)" style="stroke: gray; fill: none;" d="M101.602,155.975L71.335,173.654C41.068,191.333,-19.466,226.69,-49.733,270.454C-80,314.218,-80,366.388,-80,418.558C-80,470.729,-80,522.899,-33.861,562.169C12.277,601.438,104.555,627.808,150.693,640.993L196.832,654.177" class="er relationshipLine"/><path marker-start="url(#ONLY_ONE_START)" marker-end="url(#ZERO_OR_MORE_END)" style="stroke: gray; fill: none;" d="M296.832,651.597L334.637,638.842C372.443,626.087,448.053,600.578,479.833,568.961C511.612,537.344,499.561,499.62,493.535,480.758L487.509,461.895" class="er relationshipLine"/><path marker-start="url(#ONLY_ONE_START)" marker-end="url(#ZERO_OR_ONE_END)" style="stroke: gray; fill: none;" d="M420,455.586L391.139,475.5C362.277,495.413,304.555,535.241,275.693,563.488C246.832,591.736,246.832,608.402,246.832,616.736L246.832,625.069" class="er relationshipLine"/><g transform="translate(101.6015625,20 )" id="entity-ISSUE-2ecf30ce-24c5-59cb-a85b-0ab1afac3cd9"><rect height="192.0479555130005" width="136.796875" y="0" x="0" class="er entityBox"/><text transform="translate(68.3984375,11.75)" style="dominant-baseline: middle; text-anchor: middle; font-size: 12px;" y="0" x="0" id="text-entity-ISSUE-2ecf30ce-24c5-59cb-a85b-0ab1afac3cd9" class="er entityLabel">ISSUE</text><rect height="21" width="49.125" y="23.5" x="0" class="er attributeBoxOdd"/><text transform="translate(5,34)" style="dominant-baseline: middle; font-size: 10.2px;" y="0" x="0" id="text-entity-ISSUE-2ecf30ce-24c5-59cb-a85b-0ab1afac3cd9-attr-1-type" class="er entityLabel">int</text><rect height="21" width="87.671875" y="23.5" x="49.125" class="er attributeBoxOdd"/><text transform="translate(54.125,34)" style="dominant-baseline: middle; font-size: 10.2px;" y="0" x="0" id="text-entity-ISSUE-2ecf30ce-24c5-59cb-a85b-0ab1afac3cd9-attr-1-name" class="er entityLabel">id</text><rect height="21.146583557128906" width="49.125" y="44.5" x="0" class="er attributeBoxEven"/><text transform="translate(5,55.07329177856445)" style="dominant-baseline: middle; font-size: 10.2px;" y="0" x="0" id="text-entity-ISSUE-2ecf30ce-24c5-59cb-a85b-0ab1afac3cd9-attr-2-type" class="er entityLabel">string</text><rect height="21.146583557128906" width="87.671875" y="44.5" x="49.125" class="er attributeBoxEven"/><text transform="translate(54.125,55.07329177856445)" style="dominant-baseline: middle; font-size: 10.2px;" y="0" x="0" id="text-entity-ISSUE-2ecf30ce-24c5-59cb-a85b-0ab1afac3cd9-attr-2-name" class="er entityLabel">title</text><rect height="21.146583557128906" width="49.125" y="65.6465835571289" x="0" class="er attributeBoxOdd"/><text transform="translate(5,76.21987533569336)" style="dominant-baseline: middle; font-size: 10.2px;" y="0" x="0" id="text-entity-ISSUE-2ecf30ce-24c5-59cb-a85b-0ab1afac3cd9-attr-3-type" class="er entityLabel">string</text><rect height="21.146583557128906" width="87.671875" y="65.6465835571289" x="49.125" class="er attributeBoxOdd"/><text transform="translate(54.125,76.21987533569336)" style="dominant-baseline: middle; font-size: 10.2px;" y="0" x="0" id="text-entity-ISSUE-2ecf30ce-24c5-59cb-a85b-0ab1afac3cd9-attr-3-name" class="er entityLabel">state</text><rect height="21.027050971984863" width="49.125" y="86.79316711425781" x="0" class="er attributeBoxEven"/><text transform="translate(5,97.30669260025024)" style="dominant-baseline: middle; font-size: 10.2px;" y="0" x="0" id="text-entity-ISSUE-2ecf30ce-24c5-59cb-a85b-0ab1afac3cd9-attr-4-type" class="er entityLabel">datetime</text><rect height="21.027050971984863" width="87.671875" y="86.79316711425781" x="49.125" class="er attributeBoxEven"/><text transform="translate(54.125,97.30669260025024)" style="dominant-baseline: middle; font-size: 10.2px;" y="0" x="0" id="text-entity-ISSUE-2ecf30ce-24c5-59cb-a85b-0ab1afac3cd9-attr-4-name" class="er entityLabel">created_at</text><rect height="21.02705192565918" width="49.125" y="107.82021808624268" x="0" class="er attributeBoxOdd"/><text transform="translate(5,118.33374404907227)" style="dominant-baseline: middle; font-size: 10.2px;" y="0" x="0" id="text-entity-ISSUE-2ecf30ce-24c5-59cb-a85b-0ab1afac3cd9-attr-5-type" class="er entityLabel">datetime</text><rect height="21.02705192565918" width="87.671875" y="107.82021808624268" x="49.125" class="er attributeBoxOdd"/><text transform="translate(54.125,118.33374404907227)" style="dominant-baseline: middle; font-size: 10.2px;" y="0" x="0" id="text-entity-ISSUE-2ecf30ce-24c5-59cb-a85b-0ab1afac3cd9-attr-5-name" class="er entityLabel">updated_at</text><rect height="21.027050971984863" width="49.125" y="128.84727001190186" x="0" class="er attributeBoxEven"/><text transform="translate(5,139.3607954978943)" style="dominant-baseline: middle; font-size: 10.2px;" y="0" x="0" id="text-entity-ISSUE-2ecf30ce-24c5-59cb-a85b-0ab1afac3cd9-attr-6-type" class="er entityLabel">datetime</text><rect height="21.027050971984863" width="87.671875" y="128.84727001190186" x="49.125" class="er attributeBoxEven"/><text transform="translate(54.125,139.3607954978943)" style="dominant-baseline: middle; font-size: 10.2px;" y="0" x="0" id="text-entity-ISSUE-2ecf30ce-24c5-59cb-a85b-0ab1afac3cd9-attr-6-name" class="er entityLabel">closed_at</text><rect height="21.027050971984863" width="49.125" y="149.87432098388672" x="0" class="er attributeBoxOdd"/><text transform="translate(5,160.38784646987915)" style="dominant-baseline: middle; font-size: 10.2px;" y="0" x="0" id="text-entity-ISSUE-2ecf30ce-24c5-59cb-a85b-0ab1afac3cd9-attr-7-type" class="er entityLabel">int</text><rect height="21.027050971984863" width="87.671875" y="149.87432098388672" x="49.125" class="er attributeBoxOdd"/><text transform="translate(54.125,160.38784646987915)" style="dominant-baseline: middle; font-size: 10.2px;" y="0" x="0" id="text-entity-ISSUE-2ecf30ce-24c5-59cb-a85b-0ab1afac3cd9-attr-7-name" class="er entityLabel">comments_count</text><rect height="21.146583557128906" width="49.125" y="170.90137195587158" x="0" class="er attributeBoxEven"/><text transform="translate(5,181.47466373443604)" style="dominant-baseline: middle; font-size: 10.2px;" y="0" x="0" id="text-entity-ISSUE-2ecf30ce-24c5-59cb-a85b-0ab1afac3cd9-attr-8-type" class="er entityLabel">string</text><rect height="21.146583557128906" width="87.671875" y="170.90137195587158" x="49.125" class="er attributeBoxEven"/><text transform="translate(54.125,181.47466373443604)" style="dominant-baseline: middle; font-size: 10.2px;" y="0" x="0" id="text-entity-ISSUE-2ecf30ce-24c5-59cb-a85b-0ab1afac3cd9-attr-8-name" class="er entityLabel">body</text></g><g transform="translate(420,375.2215919494629 )" id="entity-COMMENT-7200c8cd-419e-593d-9e89-c74d55c6fb75"><rect height="86.67363452911377" width="107.328125" y="0" x="0" class="er entityBox"/><text transform="translate(53.6640625,11.75)" style="dominant-baseline: middle; text-anchor: middle; font-size: 12px;" y="0" x="0" id="text-entity-COMMENT-7200c8cd-419e-593d-9e89-c74d55c6fb75" class="er entityLabel">COMMENT</text><rect height="21" width="49.125" y="23.5" x="0" class="er attributeBoxOdd"/><text transform="translate(5,34)" style="dominant-baseline: middle; font-size: 10.2px;" y="0" x="0" id="text-entity-COMMENT-7200c8cd-419e-593d-9e89-c74d55c6fb75-attr-1-type" class="er entityLabel">int</text><rect height="21" width="58.203125" y="23.5" x="49.125" class="er attributeBoxOdd"/><text transform="translate(54.125,34)" style="dominant-baseline: middle; font-size: 10.2px;" y="0" x="0" id="text-entity-COMMENT-7200c8cd-419e-593d-9e89-c74d55c6fb75-attr-1-name" class="er entityLabel">id</text><rect height="21.027050971984863" width="49.125" y="44.5" x="0" class="er attributeBoxEven"/><text transform="translate(5,55.01352548599243)" style="dominant-baseline: middle; font-size: 10.2px;" y="0" x="0" id="text-entity-COMMENT-7200c8cd-419e-593d-9e89-c74d55c6fb75-attr-2-type" class="er entityLabel">datetime</text><rect height="21.027050971984863" width="58.203125" y="44.5" x="49.125" class="er attributeBoxEven"/><text transform="translate(54.125,55.01352548599243)" style="dominant-baseline: middle; font-size: 10.2px;" y="0" x="0" id="text-entity-COMMENT-7200c8cd-419e-593d-9e89-c74d55c6fb75-attr-2-name" class="er entityLabel">created_at</text><rect height="21.146583557128906" width="49.125" y="65.52705097198486" x="0" class="er attributeBoxOdd"/><text transform="translate(5,76.10034275054932)" style="dominant-baseline: middle; font-size: 10.2px;" y="0" x="0" id="text-entity-COMMENT-7200c8cd-419e-593d-9e89-c74d55c6fb75-attr-3-type" class="er entityLabel">string</text><rect height="21.146583557128906" width="58.203125" y="65.52705097198486" x="49.125" class="er attributeBoxOdd"/><text transform="translate(54.125,76.10034275054932)" style="dominant-baseline: middle; font-size: 10.2px;" y="0" x="0" id="text-entity-COMMENT-7200c8cd-419e-593d-9e89-c74d55c6fb75-attr-3-name" class="er entityLabel">body</text></g><g transform="translate(20,375.16182708740234 )" id="entity-LABEL-0505c826-87f7-5168-b95c-5a146048bfa8"><rect height="86.79316711425781" width="100" y="0" x="0" class="er entityBox"/><text transform="translate(50,11.75)" style="dominant-baseline: middle; text-anchor: middle; font-size: 12px;" y="0" x="0" id="text-entity-LABEL-0505c826-87f7-5168-b95c-5a146048bfa8" class="er entityLabel">LABEL</text><rect height="21" width="49.71484375" y="23.5" x="0" class="er attributeBoxOdd"/><text transform="translate(5,34)" style="dominant-baseline: middle; font-size: 10.2px;" y="0" x="0" id="text-entity-LABEL-0505c826-87f7-5168-b95c-5a146048bfa8-attr-1-type" class="er entityLabel">int</text><rect height="21" width="50.28515625" y="23.5" x="49.71484375" class="er attributeBoxOdd"/><text transform="translate(54.71484375,34)" style="dominant-baseline: middle; font-size: 10.2px;" y="0" x="0" id="text-entity-LABEL-0505c826-87f7-5168-b95c-5a146048bfa8-attr-1-name" class="er entityLabel">id</text><rect height="21.146583557128906" width="49.71484375" y="44.5" x="0" class="er attributeBoxEven"/><text transform="translate(5,55.07329177856445)" style="dominant-baseline: middle; font-size: 10.2px;" y="0" x="0" id="text-entity-LABEL-0505c826-87f7-5168-b95c-5a146048bfa8-attr-2-type" class="er entityLabel">string</text><rect height="21.146583557128906" width="50.28515625" y="44.5" x="49.71484375" class="er attributeBoxEven"/><text transform="translate(54.71484375,55.07329177856445)" style="dominant-baseline: middle; font-size: 10.2px;" y="0" x="0" id="text-entity-LABEL-0505c826-87f7-5168-b95c-5a146048bfa8-attr-2-name" class="er entityLabel">name</text><rect height="21.146583557128906" width="49.71484375" y="65.6465835571289" x="0" class="er attributeBoxOdd"/><text transform="translate(5,76.21987533569336)" style="dominant-baseline: middle; font-size: 10.2px;" y="0" x="0" id="text-entity-LABEL-0505c826-87f7-5168-b95c-5a146048bfa8-attr-3-type" class="er entityLabel">string</text><rect height="21.146583557128906" width="50.28515625" y="65.6465835571289" x="49.71484375" class="er attributeBoxOdd"/><text transform="translate(54.71484375,76.21987533569336)" style="dominant-baseline: middle; font-size: 10.2px;" y="0" x="0" id="text-entity-LABEL-0505c826-87f7-5168-b95c-5a146048bfa8-attr-3-name" class="er entityLabel">color</text></g><g transform="translate(220,312.04795837402344 )" id="entity-REACTION-24945ccf-fddb-527b-bf8d-f2ab7cc2c20e"><rect height="213.0209035873413" width="100" y="0" x="0" class="er entityBox"/><text transform="translate(50,11.75)" style="dominant-baseline: middle; text-anchor: middle; font-size: 12px;" y="0" x="0" id="text-entity-REACTION-24945ccf-fddb-527b-bf8d-f2ab7cc2c20e" class="er entityLabel">REACTION</text><rect height="21.027050971984863" width="30.43359375" y="23.5" x="0" class="er attributeBoxOdd"/><text transform="translate(5,34.01352548599243)" style="dominant-baseline: middle; font-size: 10.2px;" y="0" x="0" id="text-entity-REACTION-24945ccf-fddb-527b-bf8d-f2ab7cc2c20e-attr-1-type" class="er entityLabel">int</text><rect height="21.027050971984863" width="69.56640625" y="23.5" x="30.43359375" class="er attributeBoxOdd"/><text transform="translate(35.43359375,34.01352548599243)" style="dominant-baseline: middle; font-size: 10.2px;" y="0" x="0" id="text-entity-REACTION-24945ccf-fddb-527b-bf8d-f2ab7cc2c20e-attr-1-name" class="er entityLabel">total_count</text><rect height="21.02705192565918" width="30.43359375" y="44.52705097198486" x="0" class="er attributeBoxEven"/><text transform="translate(5,55.04057693481445)" style="dominant-baseline: middle; font-size: 10.2px;" y="0" x="0" id="text-entity-REACTION-24945ccf-fddb-527b-bf8d-f2ab7cc2c20e-attr-2-type" class="er entityLabel">int</text><rect height="21.02705192565918" width="69.56640625" y="44.52705097198486" x="30.43359375" class="er attributeBoxEven"/><text transform="translate(35.43359375,55.04057693481445)" style="dominant-baseline: middle; font-size: 10.2px;" y="0" x="0" id="text-entity-REACTION-24945ccf-fddb-527b-bf8d-f2ab7cc2c20e-attr-2-name" class="er entityLabel">plus_one</text><rect height="21.027050971984863" width="30.43359375" y="65.55410289764404" x="0" class="er attributeBoxOdd"/><text transform="translate(5,76.06762838363647)" style="dominant-baseline: middle; font-size: 10.2px;" y="0" x="0" id="text-entity-REACTION-24945ccf-fddb-527b-bf8d-f2ab7cc2c20e-attr-3-type" class="er entityLabel">int</text><rect height="21.027050971984863" width="69.56640625" y="65.55410289764404" x="30.43359375" class="er attributeBoxOdd"/><text transform="translate(35.43359375,76.06762838363647)" style="dominant-baseline: middle; font-size: 10.2px;" y="0" x="0" id="text-entity-REACTION-24945ccf-fddb-527b-bf8d-f2ab7cc2c20e-attr-3-name" class="er entityLabel">minus_one</text><rect height="21.146583557128906" width="30.43359375" y="86.5811538696289" x="0" class="er attributeBoxEven"/><text transform="translate(5,97.15444564819336)" style="dominant-baseline: middle; font-size: 10.2px;" y="0" x="0" id="text-entity-REACTION-24945ccf-fddb-527b-bf8d-f2ab7cc2c20e-attr-4-type" class="er entityLabel">int</text><rect height="21.146583557128906" width="69.56640625" y="86.5811538696289" x="30.43359375" class="er attributeBoxEven"/><text transform="translate(35.43359375,97.15444564819336)" style="dominant-baseline: middle; font-size: 10.2px;" y="0" x="0" id="text-entity-REACTION-24945ccf-fddb-527b-bf8d-f2ab7cc2c20e-attr-4-name" class="er entityLabel">laugh</text><rect height="21.146583557128906" width="30.43359375" y="107.72773742675781" x="0" class="er attributeBoxOdd"/><text transform="translate(5,118.30102920532227)" style="dominant-baseline: middle; font-size: 10.2px;" y="0" x="0" id="text-entity-REACTION-24945ccf-fddb-527b-bf8d-f2ab7cc2c20e-attr-5-type" class="er entityLabel">int</text><rect height="21.146583557128906" width="69.56640625" y="107.72773742675781" x="30.43359375" class="er attributeBoxOdd"/><text transform="translate(35.43359375,118.30102920532227)" style="dominant-baseline: middle; font-size: 10.2px;" y="0" x="0" id="text-entity-REACTION-24945ccf-fddb-527b-bf8d-f2ab7cc2c20e-attr-5-name" class="er entityLabel">hooray</text><rect height="21" width="30.43359375" y="128.87432098388672" x="0" class="er attributeBoxEven"/><text transform="translate(5,139.37432098388672)" style="dominant-baseline: middle; font-size: 10.2px;" y="0" x="0" id="text-entity-REACTION-24945ccf-fddb-527b-bf8d-f2ab7cc2c20e-attr-6-type" class="er entityLabel">int</text><rect height="21" width="69.56640625" y="128.87432098388672" x="30.43359375" class="er attributeBoxEven"/><text transform="translate(35.43359375,139.37432098388672)" style="dominant-baseline: middle; font-size: 10.2px;" y="0" x="0" id="text-entity-REACTION-24945ccf-fddb-527b-bf8d-f2ab7cc2c20e-attr-6-name" class="er entityLabel">confused</text><rect height="21" width="30.43359375" y="149.87432098388672" x="0" class="er attributeBoxOdd"/><text transform="translate(5,160.37432098388672)" style="dominant-baseline: middle; font-size: 10.2px;" y="0" x="0" id="text-entity-REACTION-24945ccf-fddb-527b-bf8d-f2ab7cc2c20e-attr-7-type" class="er entityLabel">int</text><rect height="21" width="69.56640625" y="149.87432098388672" x="30.43359375" class="er attributeBoxOdd"/><text transform="translate(35.43359375,160.37432098388672)" style="dominant-baseline: middle; font-size: 10.2px;" y="0" x="0" id="text-entity-REACTION-24945ccf-fddb-527b-bf8d-f2ab7cc2c20e-attr-7-name" class="er entityLabel">heart</text><rect height="21" width="30.43359375" y="170.87432098388672" x="0" class="er attributeBoxEven"/><text transform="translate(5,181.37432098388672)" style="dominant-baseline: middle; font-size: 10.2px;" y="0" x="0" id="text-entity-REACTION-24945ccf-fddb-527b-bf8d-f2ab7cc2c20e-attr-8-type" class="er entityLabel">int</text><rect height="21" width="69.56640625" y="170.87432098388672" x="30.43359375" class="er attributeBoxEven"/><text transform="translate(35.43359375,181.37432098388672)" style="dominant-baseline: middle; font-size: 10.2px;" y="0" x="0" id="text-entity-REACTION-24945ccf-fddb-527b-bf8d-f2ab7cc2c20e-attr-8-name" class="er entityLabel">rocket</text><rect height="21.14658260345459" width="30.43359375" y="191.87432098388672" x="0" class="er attributeBoxOdd"/><text transform="translate(5,202.447612285614)" style="dominant-baseline: middle; font-size: 10.2px;" y="0" x="0" id="text-entity-REACTION-24945ccf-fddb-527b-bf8d-f2ab7cc2c20e-attr-9-type" class="er entityLabel">int</text><rect height="21.14658260345459" width="69.56640625" y="191.87432098388672" x="30.43359375" class="er attributeBoxOdd"/><text transform="translate(35.43359375,202.447612285614)" style="dominant-baseline: middle; font-size: 10.2px;" y="0" x="0" id="text-entity-REACTION-24945ccf-fddb-527b-bf8d-f2ab7cc2c20e-attr-9-name" class="er entityLabel">eyes</text></g><g transform="translate(196.83203125,625.0688629150391 )" id="entity-USER-6e7e2962-0c6f-577d-a7fd-2ce3a0cfd2c8"><rect height="86.79316711425781" width="100" y="0" x="0" class="er entityBox"/><text transform="translate(50,11.75)" style="dominant-baseline: middle; text-anchor: middle; font-size: 12px;" y="0" x="0" id="text-entity-USER-6e7e2962-0c6f-577d-a7fd-2ce3a0cfd2c8" class="er entityLabel">USER</text><rect height="21" width="51.6953125" y="23.5" x="0" class="er attributeBoxOdd"/><text transform="translate(5,34)" style="dominant-baseline: middle; font-size: 10.2px;" y="0" x="0" id="text-entity-USER-6e7e2962-0c6f-577d-a7fd-2ce3a0cfd2c8-attr-1-type" class="er entityLabel">int</text><rect height="21" width="48.3046875" y="23.5" x="51.6953125" class="er attributeBoxOdd"/><text transform="translate(56.6953125,34)" style="dominant-baseline: middle; font-size: 10.2px;" y="0" x="0" id="text-entity-USER-6e7e2962-0c6f-577d-a7fd-2ce3a0cfd2c8-attr-1-name" class="er entityLabel">id</text><rect height="21.146583557128906" width="51.6953125" y="44.5" x="0" class="er attributeBoxEven"/><text transform="translate(5,55.07329177856445)" style="dominant-baseline: middle; font-size: 10.2px;" y="0" x="0" id="text-entity-USER-6e7e2962-0c6f-577d-a7fd-2ce3a0cfd2c8-attr-2-type" class="er entityLabel">string</text><rect height="21.146583557128906" width="48.3046875" y="44.5" x="51.6953125" class="er attributeBoxEven"/><text transform="translate(56.6953125,55.07329177856445)" style="dominant-baseline: middle; font-size: 10.2px;" y="0" x="0" id="text-entity-USER-6e7e2962-0c6f-577d-a7fd-2ce3a0cfd2c8-attr-2-name" class="er entityLabel">login</text><rect height="21.146583557128906" width="51.6953125" y="65.6465835571289" x="0" class="er attributeBoxOdd"/><text transform="translate(5,76.21987533569336)" style="dominant-baseline: middle; font-size: 10.2px;" y="0" x="0" id="text-entity-USER-6e7e2962-0c6f-577d-a7fd-2ce3a0cfd2c8-attr-3-type" class="er entityLabel">string</text><rect height="21.146583557128906" width="48.3046875" y="65.6465835571289" x="51.6953125" class="er attributeBoxOdd"/><text transform="translate(56.6953125,76.21987533569336)" style="dominant-baseline: middle; font-size: 10.2px;" y="0" x="0" id="text-entity-USER-6e7e2962-0c6f-577d-a7fd-2ce3a0cfd2c8-attr-3-name" class="er entityLabel">url</text></g><rect height="13.5" width="19.3515625" y="223.90231323242188" x="384.134033203125" class="er relationshipLabelBox"/><text style="text-anchor: middle; dominant-baseline: middle; font-size: 12px;" y="230.65231323242188" x="393.809814453125" id="rel43" class="er relationshipLabel">has</text><rect height="13.525390625" width="64.71875" y="283.3031311035156" x="40.54344940185547" class="er relationshipLabelBox"/><text style="text-anchor: middle; dominant-baseline: middle; font-size: 12px;" y="290.0658264160156" x="72.90282440185547" id="rel44" class="er relationshipLabel">tagged_with</text><rect height="13.5" width="44.6875" y="251.93392944335938" x="240.72213745117188" class="er relationshipLabelBox"/><text style="text-anchor: middle; dominant-baseline: middle; font-size: 12px;" y="258.6839294433594" x="263.0658874511719" id="rel45" class="er relationshipLabel">receives</text><rect height="13.525390625" width="59.375" y="442.6197814941406" x="-109.33126068115234" class="er relationshipLabelBox"/><text style="text-anchor: middle; dominant-baseline: middle; font-size: 12px;" y="449.3824768066406" x="-79.64376068115234" id="rel46" class="er relationshipLabel">created_by</text><rect height="13.5" width="31.3359375" y="587.4066772460938" x="428.5545959472656" class="er relationshipLabelBox"/><text style="text-anchor: middle; dominant-baseline: middle; font-size: 12px;" y="594.1566772460938" x="444.2225646972656" id="rel47" class="er relationshipLabel">writes</text><rect height="13.525390625" width="54.6953125" y="521.453125" x="290.2991027832031" class="er relationshipLabelBox"/><text style="text-anchor: middle; dominant-baseline: middle; font-size: 12px;" y="528.2158203125" x="317.6467590332031" id="rel48" class="er relationshipLabel">written_by</text></svg>